<?xml version="1.0" encoding="UTF-8"?>
<svg id="Layer_1" xmlns="http://www.w3.org/2000/svg" version="1.1" xmlns:xlink="http://www.w3.org/1999/xlink" viewBox="0 0 1979.23 1185.7">
  <!-- Generator: Adobe Illustrator 29.5.1, SVG Export Plug-In . SVG Version: 2.1.0 Build 141)  -->
  <defs>
    <style>
      .st0 {
        fill: url(#linear-gradient2);
      }

      .st1 {
        fill: #054a4d;
      }

      .st2 {
        fill: #fff;
      }

      .st3 {
        fill: url(#linear-gradient1);
      }

      .st4 {
        fill: url(#linear-gradient3);
      }

      .st5 {
        fill: url(#linear-gradient);
      }
    </style>
    <linearGradient id="linear-gradient" x1="253.32" y1="663.85" x2="303.21" y2="663.85" gradientUnits="userSpaceOnUse">
      <stop offset="0" stop-color="#fbe0ae"/>
      <stop offset="1" stop-color="#ffb469"/>
    </linearGradient>
    <linearGradient id="linear-gradient1" x1="174.15" y1="601.55" x2="370.07" y2="601.55" xlink:href="#linear-gradient"/>
    <linearGradient id="linear-gradient2" x1="2803.24" y1="2106.66" x2="2960.53" y2="2106.66" gradientTransform="translate(3294.77 2422.7) rotate(173.53)" xlink:href="#linear-gradient"/>
    <linearGradient id="linear-gradient3" x1="2637.49" y1="2165.62" x2="2793.85" y2="2165.62" gradientTransform="translate(3294.77 2422.7) rotate(173.53)" xlink:href="#linear-gradient"/>
  </defs>
  <rect class="st1" x="-24.51" y="-21.45" width="2025.19" height="1225.53"/>
  <g>
    <path class="st2" d="M822.92,618.11c0-21.33-12.48-35.62-30.99-35.62-17.31,0-32.8,12.68-40.25,32v-82.11h-2.01l-25.76,10.47.6,2.21,1.81-1.01c2.62-1.01,4.43,0,4.43,3.02v140.06h-6.24v2.01h33.41v-2.01h-6.24v-65.4c5.43-19.12,17.71-31.39,30.39-31.39,11.87,0,19.92,11.07,19.92,27.77v69.03h-6.24v2.01h33.41v-2.01h-6.24v-69.03Z"/>
    <path class="st2" d="M933,632.6c-.2-30.79-20.33-49.3-49.1-49.3-12.48,0-22.74,3.22-30.59,8.05l-3.42,13.88c7.85-12.07,18.72-19.92,31.19-19.92,11.67,0,19.12,6.64,19.12,16.5,0,26.97-58.36,28.78-58.36,63.19,0,16.1,12.68,26.76,31.8,26.76,20.53,0,34.21-12.68,38.64-29.18v26.56h27.17v-2.01h-6.24l-.2-54.54ZM912.07,646.69c-.4,23.95-11.27,39.04-27.97,39.04-12.88,0-21.13-8.85-21.13-23.14,0-30.59,39.85-30.39,39.85-57.56,0-4.63-1.01-8.85-3.02-12.28,7.25,7.45,12.28,21.93,12.28,39.85v14.09Z"/>
    <path class="st2" d="M1122.38,618.11c0-21.33-12.48-35.62-30.79-35.62s-33.2,12.88-40.45,32.4c-1.21-19.32-13.28-32.4-30.99-32.4s-32.8,12.68-40.25,32v-29.78h-2.01l-25.76,10.46.6,2.01,1.81-.8c2.61-1.01,4.43,0,4.43,3.02v87.74h-6.24v2.01h33.4v-2.01h-6.24v-65.4c5.43-19.12,17.71-31.39,30.39-31.39,11.87,0,19.92,11.07,19.92,27.77v69.03h-6.24v2.01h33.4v-2.01h-6.24v-65.4c5.43-19.12,17.71-31.39,30.39-31.39,11.87,0,19.92,11.07,19.92,27.77v69.03h-6.24v2.01h33.4v-2.01h-6.24v-69.03Z"/>
    <path class="st2" d="M1159.61,564.38c6.24,0,10.67-4.43,10.67-10.87s-4.43-10.67-10.67-10.67-10.86,4.43-10.86,10.67,4.43,10.87,10.86,10.87Z"/>
    <path class="st2" d="M1170.07,584.71h-2.01l-25.76,10.46.6,2.01,1.81-.8c2.61-1.01,4.43,0,4.43,3.02v87.74h-6.24v2.01h33.4v-2.01h-6.24v-102.43Z"/>
    <path class="st2" d="M1223,580.28c0-27.57,5.63-45.88,20.73-45.88,9.66,0,21.53,7.65,28.98,19.32l-3.22-13.68c-7.25-4.63-18.72-7.85-29.18-7.85-25.56,0-38.24,19.52-38.24,48.1v2.22h-18.31v4.42h18.31v100.22h-6.24v2.01h33.41v-2.01h-6.24v-100.22h29.38v-4.42h-29.38v-2.22Z"/>
    <path class="st2" d="M1344.56,632.6c-.2-30.79-20.32-49.3-49.1-49.3-12.48,0-22.74,3.22-30.59,8.05l-3.42,13.88c7.85-12.07,18.72-19.92,31.19-19.92,11.67,0,19.12,6.64,19.12,16.5,0,26.97-58.36,28.78-58.36,63.19,0,16.1,12.68,26.76,31.8,26.76,20.53,0,34.21-12.68,38.64-29.18v26.56h27.17v-2.01h-6.24l-.2-54.54ZM1323.63,646.69c-.4,23.95-11.27,39.04-27.97,39.04-12.88,0-21.13-8.85-21.13-23.14,0-30.59,39.84-30.39,39.84-57.56,0-4.63-1.01-8.85-3.02-12.28,7.25,7.45,12.28,21.93,12.28,39.85v14.09Z"/>
    <path class="st2" d="M1384.21,603.83c0-9.66,10.06-18.51,24.15-18.51s25.16,8.05,32.6,19.92l-3.22-13.88c-8.85-5.43-21.33-8.05-33-8.05-24.35,0-41.46,11.87-41.46,28.17,0,30.99,63.79,39.24,63.79,60.17,0,9.46-12.88,17.51-26.76,17.51s-25.76-8.05-33.21-19.92l3.22,13.89c8.86,5.43,21.53,8.05,33.61,8.05,24.95,0,44.68-11.27,44.68-26.77,0-27.97-64.4-35.42-64.4-60.57Z"/>
    <path class="st2" d="M1559.69,618.11c0-21.33-12.48-35.62-30.99-35.62-17.31,0-32.8,12.68-40.25,32v-82.11h-2.01l-25.76,10.47.61,2.21,1.81-1.01c2.62-1.01,4.43,0,4.43,3.02v140.06h-6.24v2.01h33.4v-2.01h-6.24v-65.4c5.43-19.12,17.71-31.39,30.39-31.39,11.87,0,19.92,11.07,19.92,27.77v69.03h-6.24v2.01h33.41v-2.01h-6.24v-69.03Z"/>
    <path class="st2" d="M1596.92,564.38c6.24,0,10.67-4.43,10.67-10.87s-4.43-10.67-10.67-10.67-10.87,4.43-10.87,10.67,4.43,10.87,10.87,10.87Z"/>
    <path class="st2" d="M1607.38,584.71h-2.01l-25.76,10.46.6,2.01,1.81-.8c2.62-1.01,4.43,0,4.43,3.02v87.74h-6.24v2.01h33.41v-2.01h-6.24v-102.43Z"/>
    <path class="st2" d="M1660.13,588.09c-28,13.74-41.1,44.15-26.74,73.42,14.45,29.45,46.6,37.88,74.61,24.14,28.18-13.83,41.19-44.42,26.74-73.87-14.36-29.27-46.43-37.52-74.61-23.69ZM1718.33,676.55c-2.08,1.7-4.25,3.21-6.42,4.27-15.72,7.71-36.27.54-54.74-20.66-20.88-24.28-23.21-49.13-7.09-62.87,2.08-1.69,4.25-3.21,6.42-4.27,15.72-7.71,36.28-.54,54.57,20.3,20.97,24.46,23.48,49.22,7.27,63.23Z"/>
    <path class="st2" d="M1853.51,687.14v-69.03c0-21.33-12.48-35.62-30.99-35.62-17.3,0-32.8,12.68-40.25,32v-29.78h-2.01l-25.76,10.46.6,2.01,1.81-.8c2.61-1.01,4.43,0,4.43,3.02v87.74h-6.24v2.01h33.4v-2.01h-6.24v-65.4c5.43-19.12,17.71-31.39,30.39-31.39,11.87,0,19.92,11.07,19.92,27.77v69.03h-6.24v2.01h33.4v-2.01h-6.24Z"/>
    <path class="st2" d="M1684,623.43s1.14,16.03-16.4,16.08c0,0,15.84-1.23,16.4,15.55,0,0-.24-15.29,16.25-15.53-2.01.11-15.62.25-16.25-16.1Z"/>
    <path class="st2" d="M723.08,623.31l-12.22-4.44c-4.44,0-8.88-.07-13.31-.11v-32.04h.02v-2.01h-.02v-.3c0-.07-.03-.13-.03-.2.01-.08.02-.17.03-.25v-26.62h-2.01c0,12.99-7.26,22.44-18.98,25.89v3.49h.06v31.86c-7.03-.08-14.06-.18-21.09-.18-6.4,0-12.96-.12-19.54-.08l-33.19-85.02h-3.33l-9.43,22.87,25.22,63.19c-4.62.52-9.19,1.27-13.65,2.39-25.6,5.15-50.19,17.11-67.36,37.2-7.17,8.39-12.83,17.98-17,28.18h-4.06v2.01h33.41v-2.01h-6.58c1-2.47,3.13-8.35,3.35-8.82,3.78-8.03,8.76-15.52,14.65-22.16,16.04-18.09,36.97-27.14,59.64-30.77l24.65,61.75h-5.01v2.01h33.41v-2.01h-7.86l-24.84-63.64c.42-.01.84-.04,1.27-.05,12.44-.31,24.89-.36,37.34-.33v24.38c0,21.33,15.09,38.03,37.63,43.67v-2.01c-10.27-4.63-16.71-20.73-16.71-41.66v-24.29c8.52.05,17.03.1,25.54.1Z"/>
  </g>
  <g>
    <g>
      <path class="st5" d="M303.21,664.3c-3.75.16-24.21-.11-25.16-25.11,0,0,1.72,24.45-24.73,25.04,4.21-.06,23.96.89,24.73,24.26,0,0-.37-23.72,25.16-24.2Z"/>
      <path class="st3" d="M346.71,548.42c3.11,3.4,6.46,8.03,11.34,8.84,6.27,1.05,12.02-4.59,12.02-10.72,0-.15-.02-.29-.02-.44.04-.94-.02-1.88-.2-2.79-1.28-6.44-6.52-11.35-12.04-14.9-16.22-10.41-37.48-12.52-55.43-5.5-4.68,1.83-9.02,4.25-13.09,7.06l-1.91-7.51c-.6-2.37,1.05-4.77,3.69-5.36l.43-.1c2.64-.59,5.26.85,5.86,3.21l.43,1.7c2.83-1.2,5.81-2.45,8.89-2.81-.76-2.94-1.29-4.15-1.29-4.15-2-5.42-6.41-9.9-12.91-10.28-11.27-.65-16.36,10.42-13.6,19.24.02.06,15.9,50.8,15.9,50.8l12.74,41.79c-3.2.4-6.29.71-9.03,1.01-15.9,1.71-32.1,1.33-48,3.09,3.03-8.63,5.91-17.3,8.63-26.03,4.74-15.21,10.06-30.98,20.06-43.66.58-.74,1.21-1.45,1.84-2.15l1.41-1.45-3.26-8.87-.71.63-2,2.06.02.03c-8.39,8.91-15.2,19.6-20.5,30.66-7.93,16.55-13.51,34.05-20.04,51.16-2.05.46-4.09.95-6.13,1.54-19.77,5.68-42.51,16.37-52.05,35.82-5.19,10.58-5.95,27.54,5.49,34.45,2.04,1.23,4.44,2.1,7.22,2.48,6.73.93,14.26-.58,20.03-4.19,16.13-10.11,23.81-29.82,30.42-46.7,2.56-6.55,5.01-13.14,7.4-19.76,11.53-2.1,23.26-3.59,34.91-4.46,8.49-.64,17.05-.74,25.53-1.54l23.74,77.87-11.3-79.72c6.6-1.41,13.32-3.36,19.16-6.81,5.46-3.22,12.91-9.75,11.33-16.91-1.19-5.39-8.03-5.35-11.39-2.15-4.99,4.77-4.54,13.12-10.44,17.08-2.64,1.77-5.88,3.04-9.34,4.04l-10.15-71.64c-.24-2.42-.49-4.61-.75-6.64-.45-.14-.97-.24-1.27-.27-.24-.02-.47-.02-.71-.02-.43.09-.87.16-1.29.27-1,.27-1.97.6-2.86,1.13-.59.35-1.11.78-1.62,1.22l.15.57c.6,2.37-1.05,4.77-3.69,5.36l-.43.1c-2.64.59-5.26-.85-5.86-3.21l-.39-1.54c6.65-4.46,14.27-7.28,22.24-7.26,12.58.04,24.33,7.08,32.82,16.37ZM207.59,675.05c-3.41,3.52-7.71,6.9-12.61,6.65-5.58-.28-10-5.48-11.02-10.97-1.04-5.62.77-11.51,4.01-16.21,3.24-4.7,7.82-8.34,12.64-11.4,9.98-6.34,21.19-10.43,32.69-13.33-6.41,16.19-13.44,32.58-25.71,45.26Z"/>
    </g>
    <g>
      <path class="st0" d="M120.31,620.07c-3.06-27.03.82-53.25,10.23-76.87-14.85,26.22-21.87,57.2-18.21,89.44,9.2,81.14,82.43,139.46,163.57,130.26,3.15-.36,6.26-.82,9.34-1.37-82.84,3.4-155.44-57.78-164.93-141.46Z"/>
      <path class="st4" d="M423.69,598.11c4.36,38.43-5.2,75.22-24.67,105.36,25.16-30.79,38.37-71.3,33.53-113.93-9.51-83.87-85.2-144.15-169.07-134.64-1.18.13-2.34.28-3.51.44,82.46-2.04,154.25,59.25,163.72,142.76Z"/>
    </g>
  </g>
</svg>