<?xml version="1.0" encoding="UTF-8"?>
<svg id="Layer_1" xmlns="http://www.w3.org/2000/svg" version="1.1" xmlns:xlink="http://www.w3.org/1999/xlink" viewBox="0 0 200 100">
  <!-- Generator: Adobe Illustrator 29.5.1, SVG Export Plug-In . SVG Version: 2.1.0 Build 141)  -->
  <defs>
    <style>
      .st0 {
        fill: url(#linear-gradient2);
      }

      .st1 {
        fill: url(#linear-gradient10);
      }

      .st2 {
        fill: #fff;
      }

      .st3 {
        fill: url(#linear-gradient1);
      }

      .st4 {
        fill: url(#linear-gradient9);
      }

      .st5 {
        fill: url(#linear-gradient8);
      }

      .st6 {
        fill: url(#linear-gradient7);
      }

      .st7 {
        fill: url(#linear-gradient4);
      }

      .st8 {
        fill: url(#linear-gradient5);
      }

      .st9 {
        fill: url(#linear-gradient3);
      }

      .st10 {
        fill: url(#linear-gradient6);
      }

      .st11 {
        fill: url(#linear-gradient);
      }
    </style>
    <linearGradient id="linear-gradient" x1="20.39" y1="55.1" x2="20.44" y2="55.1" gradientUnits="userSpaceOnUse">
      <stop offset="0" stop-color="#fbe0ae"/>
      <stop offset="1" stop-color="#ffb469"/>
    </linearGradient>
    <linearGradient id="linear-gradient1" x1="16.27" y1="55.1" x2="16.34" y2="55.1" xlink:href="#linear-gradient"/>
    <linearGradient id="linear-gradient2" x1="16.34" y1="55.06" x2="20.39" y2="55.06" xlink:href="#linear-gradient"/>
    <linearGradient id="linear-gradient3" x1="9.91" y1="50.01" x2="25.82" y2="50.01" xlink:href="#linear-gradient"/>
    <linearGradient id="linear-gradient4" x1="3.21" y1="42.03" x2="32.17" y2="42.03" xlink:href="#linear-gradient"/>
    <linearGradient id="linear-gradient5" x1="3.72" y1="60.44" x2="34.13" y2="60.44" xlink:href="#linear-gradient"/>
    <linearGradient id="linear-gradient6" x1="4.86" y1="60.66" x2="17.97" y2="60.66" xlink:href="#linear-gradient"/>
    <linearGradient id="linear-gradient7" x1="14.68" y1="40.69" x2="31.15" y2="40.69" xlink:href="#linear-gradient"/>
    <linearGradient id="linear-gradient8" x1="2.58" y1="50.82" x2="4.11" y2="50.82" xlink:href="#linear-gradient"/>
    <linearGradient id="linear-gradient9" x1="32.51" y1="50.82" x2="34.04" y2="50.82" xlink:href="#linear-gradient"/>
    <linearGradient id="linear-gradient10" x1="175.95" y1="54.69" x2="179.79" y2="54.69" xlink:href="#linear-gradient"/>
  </defs>
  <g>
    <path class="st11" d="M20.39,55.1s.05,0,.05,0c-.02,0-.03,0-.05,0Z"/>
    <path class="st3" d="M16.34,55.1s-.07,0-.07,0c.02,0,.04,0,.07,0Z"/>
    <path class="st0" d="M20.39,55.1c-.3.01-1.96,0-2.04-2.04,0,0,.14,1.98-2.01,2.03.34,0,1.94.07,2.01,1.97,0,0-.03-1.93,2.04-1.96Z"/>
    <path class="st9" d="M23.92,45.69c.25.28.52.65.92.72.51.09.98-.37.98-.87,0-.01,0-.02,0-.04,0-.08,0-.15-.02-.23-.1-.52-.53-.92-.98-1.21-1.32-.85-3.04-1.02-4.5-.45-.38.15-.73.34-1.06.57l-.15-.61c-.05-.19.09-.39.3-.44h.04c.21-.06.43.06.48.25l.04.14c.23-.1.47-.2.72-.23-.06-.24-.1-.34-.1-.34-.16-.44-.52-.8-1.05-.83-.91-.05-1.33.85-1.1,1.56,0,0,1.29,4.12,1.29,4.12l1.03,3.39c-.26.03-.51.06-.73.08-1.29.14-2.61.11-3.9.25.25-.7.48-1.4.7-2.11.38-1.23.82-2.51,1.63-3.54.05-.06.1-.12.15-.17l.11-.12-.26-.72-.06.05-.16.17h0c-.68.73-1.23,1.59-1.66,2.49-.64,1.34-1.1,2.76-1.63,4.15-.17.04-.33.08-.5.12-1.61.46-3.45,1.33-4.23,2.91-.42.86-.48,2.24.45,2.8.17.1.36.17.59.2.55.08,1.16-.05,1.63-.34,1.31-.82,1.93-2.42,2.47-3.79.21-.53.41-1.07.6-1.6.94-.17,1.89-.29,2.83-.36.69-.05,1.38-.06,2.07-.12l1.93,6.32-.92-6.47c.54-.11,1.08-.27,1.56-.55.44-.26,1.05-.79.92-1.37-.1-.44-.65-.43-.92-.17-.4.39-.37,1.06-.85,1.39-.21.14-.48.25-.76.33l-.82-5.82c-.02-.2-.04-.37-.06-.54-.04-.01-.08-.02-.1-.02-.02,0-.04,0-.06,0-.04,0-.07.01-.1.02-.08.02-.16.05-.23.09-.05.03-.09.06-.13.1v.05c.06.19-.07.39-.29.44h-.04c-.21.06-.43-.06-.48-.25l-.03-.12c.54-.36,1.16-.59,1.81-.59,1.02,0,1.97.58,2.66,1.33ZM12.63,55.97c-.28.29-.63.56-1.02.54-.45-.02-.81-.44-.89-.89-.08-.46.06-.93.33-1.32s.63-.68,1.03-.93c.81-.51,1.72-.85,2.65-1.08-.52,1.31-1.09,2.64-2.09,3.67Z"/>
    <path class="st7" d="M3.67,47.12c-.04.2.06.41.24.51.17.1.41.07.55-.07.11.15.35.16.53.09.38-.15.61-.56.67-.96.05-.41-.05-.81-.17-1.2.12-.02.17-.17.14-.29-.03-.12-.1-.23-.11-.35-.03-.19.09-.37.21-.53.68-.89,1.63-1.61,2.69-1.96.92-.3,1.4-.76,1.4-.76-.02.05-.04.1-.06.15-.08.18-.14.36-.26.51-.11.15-.26.28-.39.41-.51.52-.88,1.18-1.01,1.89-.23,1.16.15,2.35.19,3.54,0,.06.02.14.08.15.05,0,.09-.04.11-.08.4-.58.79-1.15,1.19-1.73.29-.42.58-.86.65-1.37.06-.46-.08-.91-.22-1.35-.13-.41-.26-.83-.28-1.26-.02-.56.19-1.02.57-1.42.93-.99,1.7-2.16,2.21-3.42,1.84-.81,3.87-1.26,6.01-1.26,5.57,0,10.43,3.04,13,7.55.11.03.22.04.33.02.09-.01.19-.05.24-.13,0,0,0-.01,0-.02-2.65-4.76-7.74-7.99-13.58-7.99-3.03,0-5.86.87-8.25,2.37-.02.07-.01.16,0,.22.03.14.11.25.24.29.51-.33,1.05-.62,1.6-.88-.37,1.14-1.5,1.62-1.5,1.62-.22,0-.46-.08-.67-.13-.31-.07-.62-.16-.92-.26-.29-.1-.6-.2-.91-.19-.5.02-1.1.23-1.44.61-1.34,1.48-1.88,1.67-1.88,1.67l.03.18c.27-.13,2.46-.2,2.46-.2,1.9.09,3.17-1.4,3.17-1.4.59-.2.89-.48.89-.48l-.03.1c-.35.55-.73,1.08-1.17,1.55-.38.41-.79.77-1.28,1.02-.69.35-1.42.56-2.05,1.02-.45.33-.83.77-1.17,1.21-.11.14-.22.29-.39.33-.21.05-.44-.09-.64-.01-.17.07-.24.31-.13.46-.51.33-1.02.73-1.26,1.3-.08.18-.12.39-.06.58.06.19.24.35.44.33ZM9.95,43.89c.09.32.21.62.21.95,0,.26-.07.52-.17.77-.12.28-.29.5-.46.74,0,0-1.09,1.61-1.09,1.61-.11-.75-.21-1.5-.24-2.25-.01-.32-.02-.64.01-.96.05-.53.3-1.05.59-1.49.12-.19.25-.37.39-.54.06-.07.16-.14.2-.22-.59,1.19-.72,2.56-.75,3.87,0,.07,0,.15.06.19.03-.57.05-1.13.15-1.69.16-.86.41-1.72.78-2.51-.02.04.03.2.03.25.02.14.05.28.07.42.06.28.12.57.2.85ZM9.62,39.84c-1.14.19-2.31.32-3.36.8.55-.16,1.12-.29,1.69-.39.56-.09,1.13-.11,1.69-.22.23-.05.46-.12.68-.22.23-.1-.39.32-.6.46-.39.26-.83.53-1.29.61-.53.09-1.08.09-1.62.13-.5.03-1.01.06-1.51.09.53-.43.96-.97,1.48-1.4.36-.29.78-.53,1.24-.59.82-.1,1.6.37,2.43.4-.21.22-.53.28-.82.33ZM5.36,45.49c.09-.03.09.32.09.38.02.18.03.35.02.53-.02.4-.12.97-.57,1.09-.08.02-.17.03-.25.01-.02,0-.09-.03-.11-.02.25-.14.42-.39.53-.65.18-.41.28-.89.29-1.34ZM4.92,45.1c.1-.04.19.05.19.05.07.25.16.22.16.22-.02,0-.04.38-.05.43-.02.13-.05.25-.09.38-.08.27-.18.54-.32.78-.13.22-.38.6-.68.57-.06,0-.12-.04-.16-.08-.22-.22-.13-.59-.05-.85.12-.39.32-.75.58-1.07.09-.11.2-.22.31-.32.03-.03.08-.09.12-.1ZM3.58,46.06c.32-.55,1.05-1.12,1.05-1.12l.14.07v.04c-1.08.99-1.1,1.9-1.1,1.9-.44-.1-.09-.89-.09-.89Z"/>
    <path class="st8" d="M34.09,55.17c-.07-.19-.26-.34-.45-.31.03-.2-.08-.41-.26-.49-.18-.09-.41-.04-.55.1-.12-.15-.36-.14-.53-.06-.37.17-.58.59-.61,1s.1.81.24,1.19c-.12.02-.16.18-.13.3s.11.22.13.34c.04.19-.07.38-.18.54-.63.92-1.53,1.7-2.58,2.11-.91.36-1.35.83-1.35.83.02-.05.03-.1.05-.15.07-.18.12-.36.23-.52.11-.16.24-.29.37-.43.48-.55.81-1.23.91-1.95.16-1.17-.28-2.34-.39-3.52,0-.06-.02-.14-.08-.14-.05,0-.08.04-.11.08-.36.6-.73,1.2-1.09,1.8-.26.44-.54.89-.57,1.4-.03.46.13.9.29,1.33.15.4.31.81.35,1.24.05.55-.13,1.03-.49,1.45-.84,1-1.53,2.17-1.97,3.41-2.02,1.02-4.3,1.59-6.72,1.59-6.76,0-12.47-4.48-14.33-10.64-.04,0-.07,0-.11.01-.15.03-.3.08-.44.15,1.93,6.39,7.86,11.04,14.87,11.04,3.38,0,6.5-1.08,9.05-2.91,0-.03,0-.05-.01-.08-.02-.11-.06-.23-.13-.32-.05-.05-.11-.08-.17-.08-.52.38-1.07.72-1.65,1.03.35-1.07,1.37-1.58,1.37-1.58.22-.02.46.05.67.09.32.06.63.13.94.21.3.08.61.16.92.13.5-.04,1.08-.29,1.41-.69,1.25-1.55,1.78-1.77,1.78-1.77l-.04-.18c-.26.15-2.44.33-2.44.33-1.9.02-3.09,1.58-3.09,1.58-.57.24-.86.53-.86.53l.02-.1c.32-.57.67-1.12,1.08-1.62.35-.43.74-.81,1.22-1.09.66-.39,1.39-.64,1.99-1.13.43-.35.78-.81,1.1-1.27.1-.14.21-.3.37-.35.21-.06.44.07.64-.03.17-.08.22-.33.11-.47.49-.36.98-.79,1.18-1.37.07-.19.1-.39.03-.58ZM29.75,61.97c-.55.13-1.12.18-1.67.32-.23.06-.46.15-.67.26-.22.12.37-.34.57-.49.37-.28.79-.58,1.26-.68.53-.12,1.08-.15,1.61-.22.5-.06,1-.12,1.5-.18-.5.46-.9,1.02-1.4,1.48-.34.31-.75.57-1.21.66-.81.15-1.62-.28-2.45-.26.2-.23.51-.31.8-.38,1.13-.26,2.29-.45,3.31-.98-.54.19-1.1.35-1.66.48ZM27.55,58.45c-.11-.31-.25-.61-.26-.94-.01-.26.04-.53.13-.78.1-.29.26-.51.41-.77,0,0,1-1.67,1-1.67.15.74.29,1.48.37,2.23.03.32.05.64.04.96-.02.53-.25,1.06-.5,1.52-.11.19-.23.38-.36.56-.05.07-.15.15-.19.23.53-1.22.58-2.6.53-3.91,0-.07-.01-.15-.07-.19,0,.57.01,1.13-.06,1.7-.11.86-.31,1.74-.64,2.55.02-.04-.04-.2-.05-.25-.02-.14-.06-.28-.1-.41-.07-.28-.16-.56-.25-.83ZM32.04,56.59c-.09.03-.11-.31-.11-.37-.03-.17-.05-.35-.05-.53,0-.4.07-.98.51-1.12.08-.03.17-.04.25-.03.02,0,.09.02.11.02-.24.15-.39.42-.49.68-.16.42-.23.91-.22,1.36ZM32.51,56.96c-.1.04-.19-.04-.19-.04-.09-.25-.17-.21-.17-.21.02,0,.02-.38.03-.43.02-.13.04-.26.06-.38.06-.28.15-.54.28-.8.12-.23.35-.62.65-.6.06,0,.12.03.17.07.23.21.17.58.1.84-.09.4-.28.77-.52,1.1-.09.12-.18.23-.29.34-.03.03-.08.09-.12.11ZM33.79,55.93c-.29.57-.99,1.18-.99,1.18l-.14-.07v-.04c1.02-1.05.99-1.96.99-1.96.45.07.14.88.14.88Z"/>
    <path class="st10" d="M5.21,55.59s-.09,0-.13,0c-.1.01-.17.06-.22.13,1.79,5.6,6.9,9.72,13.02,10.02.05-.06.1-.12.09-.2,0-.06-.03-.12-.07-.17-5.97-.29-10.96-4.31-12.69-9.77Z"/>
    <path class="st6" d="M30.83,44.45s.04,0,.06,0c.08,0,.16-.04.21-.1.02-.03.03-.06.05-.09-2.47-4.38-7.17-7.33-12.56-7.33-1.33,0-2.63.18-3.85.52-.06.08-.09.17-.04.26.02.04.05.08.09.11,1.21-.34,2.49-.52,3.81-.52,5.25,0,9.83,2.88,12.24,7.15Z"/>
    <path class="st5" d="M4.11,50.82c0-.42-.34-.76-.76-.76s-.76.34-.76.76.34.76.76.76.76-.34.76-.76Z"/>
    <path class="st4" d="M33.27,51.58c.42,0,.76-.34.76-.76s-.34-.76-.76-.76-.76.34-.76.76.34.76.76.76Z"/>
  </g>
  <g>
    <path class="st2" d="M76.79,52.21c0-2.5-1.46-4.18-3.64-4.18-2.03,0-3.85,1.49-4.73,3.76v-9.64h-.24l-3.02,1.23.07.26.21-.12c.31-.12.52,0,.52.35v16.44h-.73v.24h3.92v-.24h-.73v-7.68c.64-2.24,2.08-3.69,3.57-3.69,1.39,0,2.34,1.3,2.34,3.26v8.1h-.73v.24h3.92v-.24h-.73v-8.1Z"/>
    <path class="st2" d="M89.71,53.91c-.02-3.61-2.39-5.79-5.76-5.79-1.46,0-2.67.38-3.59.94l-.4,1.63c.92-1.42,2.2-2.34,3.66-2.34,1.37,0,2.24.78,2.24,1.94,0,3.17-6.85,3.38-6.85,7.42,0,1.89,1.49,3.14,3.73,3.14,2.41,0,4.02-1.49,4.54-3.43v3.12h3.19v-.24h-.73l-.02-6.4ZM87.26,55.57c-.05,2.81-1.32,4.58-3.28,4.58-1.51,0-2.48-1.04-2.48-2.72,0-3.59,4.68-3.57,4.68-6.76,0-.54-.12-1.04-.35-1.44.85.87,1.44,2.58,1.44,4.68v1.65Z"/>
    <path class="st2" d="M111.95,52.21c0-2.5-1.46-4.18-3.61-4.18s-3.9,1.51-4.75,3.8c-.14-2.27-1.56-3.8-3.64-3.8s-3.85,1.49-4.72,3.76v-3.5h-.24l-3.02,1.23.07.24.21-.09c.31-.12.52,0,.52.35v10.3h-.73v.24h3.92v-.24h-.73v-7.68c.64-2.24,2.08-3.69,3.57-3.69,1.39,0,2.34,1.3,2.34,3.26v8.1h-.73v.24h3.92v-.24h-.73v-7.68c.64-2.24,2.08-3.69,3.57-3.69,1.39,0,2.34,1.3,2.34,3.26v8.1h-.73v.24h3.92v-.24h-.73v-8.1Z"/>
    <path class="st2" d="M116.32,45.91c.73,0,1.25-.52,1.25-1.28s-.52-1.25-1.25-1.25-1.28.52-1.28,1.25.52,1.28,1.28,1.28Z"/>
    <path class="st2" d="M117.55,48.29h-.24l-3.02,1.23.07.24.21-.09c.31-.12.52,0,.52.35v10.3h-.73v.24h3.92v-.24h-.73v-12.03Z"/>
    <path class="st2" d="M123.76,47.77c0-3.24.66-5.39,2.43-5.39,1.13,0,2.53.9,3.4,2.27l-.38-1.61c-.85-.54-2.2-.92-3.43-.92-3,0-4.49,2.29-4.49,5.65v.26h-2.15v.52h2.15v11.77h-.73v.24h3.92v-.24h-.73v-11.77h3.45v-.52h-3.45v-.26Z"/>
    <path class="st2" d="M138.03,53.91c-.02-3.61-2.39-5.79-5.76-5.79-1.46,0-2.67.38-3.59.94l-.4,1.63c.92-1.42,2.2-2.34,3.66-2.34,1.37,0,2.24.78,2.24,1.94,0,3.17-6.85,3.38-6.85,7.42,0,1.89,1.49,3.14,3.73,3.14,2.41,0,4.02-1.49,4.54-3.43v3.12h3.19v-.24h-.73l-.02-6.4ZM135.57,55.57c-.05,2.81-1.32,4.58-3.28,4.58-1.51,0-2.48-1.04-2.48-2.72,0-3.59,4.68-3.57,4.68-6.76,0-.54-.12-1.04-.35-1.44.85.87,1.44,2.58,1.44,4.68v1.65Z"/>
    <path class="st2" d="M142.68,50.54c0-1.13,1.18-2.17,2.83-2.17s2.95.94,3.83,2.34l-.38-1.63c-1.04-.64-2.5-.94-3.87-.94-2.86,0-4.87,1.39-4.87,3.31,0,3.64,7.49,4.61,7.49,7.06,0,1.11-1.51,2.06-3.14,2.06s-3.02-.94-3.9-2.34l.38,1.63c1.04.64,2.53.94,3.95.94,2.93,0,5.24-1.32,5.24-3.14,0-3.28-7.56-4.16-7.56-7.11Z"/>
    <path class="st2" d="M163.28,52.21c0-2.5-1.46-4.18-3.64-4.18-2.03,0-3.85,1.49-4.72,3.76v-9.64h-.24l-3.02,1.23.07.26.21-.12c.31-.12.52,0,.52.35v16.44h-.73v.24h3.92v-.24h-.73v-7.68c.64-2.24,2.08-3.69,3.57-3.69,1.39,0,2.34,1.3,2.34,3.26v8.1h-.73v.24h3.92v-.24h-.73v-8.1Z"/>
    <path class="st2" d="M167.66,45.91c.73,0,1.25-.52,1.25-1.28s-.52-1.25-1.25-1.25-1.28.52-1.28,1.25.52,1.28,1.28,1.28Z"/>
    <path class="st2" d="M168.88,48.29h-.24l-3.02,1.23.07.24.21-.09c.31-.12.52,0,.52.35v10.3h-.73v.24h3.92v-.24h-.73v-12.03Z"/>
    <path class="st2" d="M175.08,48.69c-3.29,1.61-4.82,5.18-3.14,8.62,1.7,3.46,5.47,4.45,8.76,2.83,3.31-1.62,4.84-5.22,3.14-8.67-1.69-3.44-5.45-4.4-8.76-2.78ZM181.91,59.07c-.24.2-.5.38-.75.5-1.85.91-4.26.06-6.43-2.43-2.45-2.85-2.72-5.77-.83-7.38.24-.2.5-.38.75-.5,1.85-.91,4.26-.06,6.41,2.38,2.46,2.87,2.76,5.78.85,7.42Z"/>
    <path class="st2" d="M197.78,60.32v-8.1c0-2.5-1.46-4.18-3.64-4.18-2.03,0-3.85,1.49-4.72,3.76v-3.5h-.24l-3.02,1.23.07.24.21-.09c.31-.12.52,0,.52.35v10.3h-.73v.24h3.92v-.24h-.73v-7.68c.64-2.24,2.08-3.69,3.57-3.69,1.39,0,2.34,1.3,2.34,3.26v8.1h-.73v.24h3.92v-.24h-.73Z"/>
    <path class="st1" d="M177.88,52.84s.13,1.88-1.92,1.89c0,0,1.86-.14,1.92,1.83,0,0-.03-1.8,1.91-1.82-.24.01-1.83.03-1.91-1.89Z"/>
    <path class="st2" d="M65.07,52.82l-1.44-.52c-.52,0-1.04,0-1.56-.01v-3.76h0v-.24h0v-.04s0-.01,0-.02c0,0,0-.02,0-.03v-3.12h-.24c0,1.52-.85,2.63-2.23,3.04v.41h0v3.74c-.83,0-1.65-.02-2.48-.02-.75,0-1.52-.01-2.29,0l-3.9-9.98h-.39l-1.11,2.68,2.96,7.42c-.54.06-1.08.15-1.6.28-3.01.6-5.89,2.01-7.91,4.37-.84.98-1.51,2.11-2,3.31h-.48v.24h3.92v-.24h-.77c.12-.29.37-.98.39-1.04.44-.94,1.03-1.82,1.72-2.6,1.88-2.12,4.34-3.19,7-3.61l2.89,7.25h-.59v.24h3.92v-.24h-.92l-2.92-7.47s.1,0,.15,0c1.46-.04,2.92-.04,4.38-.04v2.86c0,2.5,1.77,4.47,4.42,5.13v-.24c-1.21-.54-1.96-2.43-1.96-4.89v-2.85c1,0,2,.01,3,.01Z"/>
  </g>
</svg>