<?xml version="1.0" encoding="UTF-8"?>
<svg id="Layer_1" xmlns="http://www.w3.org/2000/svg" version="1.1" xmlns:xlink="http://www.w3.org/1999/xlink" viewBox="0 0 1979.23 1185.7">
  <!-- Generator: Adobe Illustrator 29.5.1, SVG Export Plug-In . SVG Version: 2.1.0 Build 141)  -->
  <defs>
    <style>
      .st0 {
        fill: url(#linear-gradient2);
      }

      .st1 {
        fill: #054a4d;
      }

      .st2 {
        fill: #fff;
      }

      .st3 {
        fill: url(#linear-gradient1);
      }

      .st4 {
        fill: url(#linear-gradient4);
      }

      .st5 {
        fill: url(#linear-gradient5);
      }

      .st6 {
        fill: url(#linear-gradient3);
      }

      .st7 {
        fill: url(#linear-gradient);
      }
    </style>
    <linearGradient id="linear-gradient" x1="1004.89" y1="518.26" x2="1005.67" y2="518.26" gradientUnits="userSpaceOnUse">
      <stop offset="0" stop-color="#fbe0ae"/>
      <stop offset="1" stop-color="#ffb469"/>
    </linearGradient>
    <linearGradient id="linear-gradient1" x1="937.63" y1="518.21" x2="938.73" y2="518.21" xlink:href="#linear-gradient"/>
    <linearGradient id="linear-gradient2" x1="940.16" y1="525.48" x2="1020.79" y2="525.48" xlink:href="#linear-gradient"/>
    <linearGradient id="linear-gradient3" x1="812.22" y1="424.8" x2="1128.84" y2="424.8" xlink:href="#linear-gradient"/>
    <linearGradient id="linear-gradient4" x1="2092.41" y1="2176.86" x2="2346.6" y2="2176.86" gradientTransform="translate(3294.77 2422.7) rotate(173.53)" xlink:href="#linear-gradient"/>
    <linearGradient id="linear-gradient5" x1="1824.55" y1="2272.15" x2="2077.25" y2="2272.15" gradientTransform="translate(3294.77 2422.7) rotate(173.53)" xlink:href="#linear-gradient"/>
  </defs>
  <rect class="st1" x="-24.51" y="-21.45" width="2025.19" height="1225.53"/>
  <path class="st7" d="M1004.89,518.28c.5-.02.78-.05.78-.05-.28,0-.51.04-.78.05Z"/>
  <path class="st3" d="M938.73,518.2c-.66,0-1.1.04-1.1.04.38,0,.73-.03,1.1-.04Z"/>
  <g>
    <path class="st2" d="M544.48,880.65c0-24.93-14.58-41.63-36.22-41.63-20.23,0-38.34,14.82-47.04,37.39v-95.95h-2.35l-30.1,12.23.7,2.59,2.12-1.18c3.06-1.18,5.18,0,5.18,3.53v163.68h-7.29v2.35h39.04v-2.35h-7.29v-76.43c6.35-22.34,20.7-36.69,35.51-36.69,13.88,0,23.28,12.94,23.28,32.45v80.67h-7.29v2.35h39.04v-2.35h-7.29v-80.67Z"/>
    <path class="st2" d="M673.13,897.58c-.24-35.98-23.76-57.62-57.38-57.62-14.58,0-26.58,3.76-35.75,9.41l-4,16.23c9.17-14.11,21.87-23.28,36.45-23.28,13.64,0,22.34,7.76,22.34,19.28,0,31.51-68.2,33.63-68.2,73.85,0,18.81,14.82,31.28,37.16,31.28,23.99,0,39.98-14.82,45.15-34.1v31.04h31.75v-2.35h-7.29l-.23-63.73ZM648.67,914.05c-.47,27.99-13.17,45.62-32.69,45.62-15.05,0-24.69-10.35-24.69-27.04,0-35.75,46.57-35.51,46.57-67.26,0-5.41-1.18-10.35-3.53-14.35,8.47,8.7,14.35,25.63,14.35,46.56v16.46Z"/>
    <path class="st2" d="M894.44,880.65c0-24.93-14.58-41.63-35.98-41.63s-38.8,15.05-47.27,37.86c-1.41-22.58-15.52-37.86-36.22-37.86s-38.33,14.82-47.03,37.39v-34.81h-2.35l-30.1,12.23.7,2.35,2.12-.94c3.05-1.18,5.17,0,5.17,3.53v102.54h-7.29v2.35h39.04v-2.35h-7.29v-76.43c6.35-22.34,20.69-36.69,35.51-36.69,13.88,0,23.28,12.94,23.28,32.45v80.67h-7.29v2.35h39.04v-2.35h-7.29v-76.43c6.35-22.34,20.69-36.69,35.51-36.69,13.88,0,23.28,12.94,23.28,32.45v80.67h-7.29v2.35h39.04v-2.35h-7.29v-80.67Z"/>
    <path class="st2" d="M937.95,817.86c7.29,0,12.46-5.17,12.46-12.7s-5.17-12.46-12.46-12.46-12.7,5.17-12.7,12.46,5.17,12.7,12.7,12.7Z"/>
    <path class="st2" d="M950.18,841.61h-2.35l-30.1,12.23.7,2.35,2.12-.94c3.05-1.18,5.17,0,5.17,3.53v102.54h-7.29v2.35h39.04v-2.35h-7.29v-119.7Z"/>
    <path class="st2" d="M1012.03,836.44c0-32.22,6.58-53.62,24.22-53.62,11.29,0,25.16,8.94,33.87,22.58l-3.76-15.99c-8.47-5.41-21.87-9.17-34.1-9.17-29.87,0-44.68,22.81-44.68,56.21v2.59h-21.4v5.16h21.4v117.12h-7.29v2.35h39.04v-2.35h-7.29v-117.12h34.33v-5.16h-34.33v-2.59Z"/>
    <path class="st2" d="M1154.08,897.58c-.23-35.98-23.75-57.62-57.38-57.62-14.58,0-26.57,3.76-35.74,9.41l-4,16.23c9.17-14.11,21.87-23.28,36.45-23.28,13.64,0,22.34,7.76,22.34,19.28,0,31.51-68.2,33.63-68.2,73.85,0,18.81,14.81,31.28,37.16,31.28,23.99,0,39.98-14.82,45.15-34.1v31.04h31.75v-2.35h-7.29l-.23-63.73ZM1129.63,914.05c-.47,27.99-13.17,45.62-32.69,45.62-15.05,0-24.69-10.35-24.69-27.04,0-35.75,46.56-35.51,46.56-67.26,0-5.41-1.18-10.35-3.53-14.35,8.47,8.7,14.35,25.63,14.35,46.56v16.46Z"/>
    <path class="st2" d="M1200.42,863.95c0-11.29,11.76-21.64,28.22-21.64s29.4,9.41,38.1,23.28l-3.76-16.23c-10.35-6.35-24.93-9.41-38.57-9.41-28.46,0-48.45,13.87-48.45,32.92,0,36.22,74.55,45.86,74.55,70.32,0,11.05-15.05,20.46-31.28,20.46s-30.1-9.41-38.81-23.28l3.76,16.23c10.35,6.35,25.16,9.41,39.28,9.41,29.16,0,52.21-13.17,52.21-31.28,0-32.69-75.26-41.39-75.26-70.79Z"/>
    <path class="st2" d="M1405.49,880.65c0-24.93-14.58-41.63-36.22-41.63-20.23,0-38.33,14.82-47.03,37.39v-95.95h-2.35l-30.1,12.23.71,2.59,2.11-1.18c3.06-1.18,5.18,0,5.18,3.53v163.68h-7.29v2.35h39.04v-2.35h-7.29v-76.43c6.35-22.34,20.69-36.69,35.51-36.69,13.87,0,23.28,12.94,23.28,32.45v80.67h-7.29v2.35h39.04v-2.35h-7.29v-80.67Z"/>
    <path class="st2" d="M1449.01,817.86c7.29,0,12.46-5.17,12.46-12.7s-5.18-12.46-12.46-12.46-12.7,5.17-12.7,12.46,5.18,12.7,12.7,12.7Z"/>
    <path class="st2" d="M1461.23,841.61h-2.35l-30.1,12.23.7,2.35,2.12-.94c3.06-1.18,5.18,0,5.18,3.53v102.54h-7.29v2.35h39.04v-2.35h-7.29v-119.7Z"/>
    <path class="st2" d="M1522.88,845.57c-32.73,16.06-48.03,51.6-31.25,85.8,16.89,34.41,54.46,44.27,87.19,28.21,32.94-16.16,48.14-51.91,31.25-86.33-16.78-34.2-54.26-43.84-87.2-27.68ZM1590.89,948.94c-2.44,1.98-4.97,3.75-7.51,4.99-18.37,9.01-42.39.63-63.98-24.14-24.4-28.37-27.13-57.42-8.28-73.48,2.43-1.98,4.97-3.75,7.5-4.99,18.37-9.01,42.39-.63,63.77,23.72,24.51,28.58,27.44,57.53,8.49,73.9Z"/>
    <path class="st2" d="M1748.86,961.32v-80.67c0-24.93-14.58-41.63-36.22-41.63-20.22,0-38.33,14.82-47.03,37.39v-34.81h-2.35l-30.1,12.23.7,2.35,2.12-.94c3.05-1.18,5.17,0,5.17,3.53v102.54h-7.29v2.35h39.04v-2.35h-7.29v-76.43c6.35-22.34,20.69-36.69,35.51-36.69,13.88,0,23.28,12.94,23.28,32.45v80.67h-7.29v2.35h39.04v-2.35h-7.29Z"/>
    <path class="st2" d="M1550.77,886.86s1.33,18.73-19.16,18.79c0,0,18.51-1.44,19.16,18.17,0,0-.28-17.87,18.99-18.15-2.35.13-18.26.29-18.99-18.81Z"/>
    <path class="st2" d="M427.81,886.72l-14.29-5.19c-5.19,0-10.37-.08-15.56-.13v-37.44h.02v-2.35h-.02v-.36c0-.08-.04-.15-.04-.23.01-.1.03-.2.04-.29v-31.11h-2.35c0,15.18-8.49,26.22-22.18,30.26v4.08h.07v37.24c-8.21-.1-16.43-.21-24.64-.21-7.48,0-15.15-.14-22.83-.1l-38.79-99.35h-3.89l-11.02,26.72,29.48,73.85c-5.4.61-10.74,1.49-15.95,2.79-29.92,6.02-58.66,20-78.71,43.47-8.38,9.81-14.99,21.01-19.87,32.93h-4.74v2.35h39.04v-2.35h-7.69c1.16-2.88,3.66-9.75,3.92-10.3,4.42-9.39,10.23-18.14,17.12-25.9,18.75-21.14,43.2-31.72,69.7-35.96l28.81,72.17h-5.86v2.35h39.04v-2.35h-9.18l-29.03-74.37c.49-.02.99-.05,1.48-.06,14.53-.37,29.08-.42,43.63-.38v28.49c0,24.93,17.64,44.45,43.98,51.03v-2.35c-12-5.41-19.52-24.22-19.52-48.68v-28.38c9.95.06,19.9.12,29.85.12Z"/>
  </g>
  <g>
    <path class="st0" d="M1020.79,526.21c-6.06.26-39.12-.18-40.66-40.57,0,0,2.78,39.51-39.97,40.47,6.8-.1,38.72,1.44,39.97,39.21,0,0-.59-38.34,40.66-39.11Z"/>
    <path class="st6" d="M1091.09,338.95c5.02,5.49,10.44,12.97,18.32,14.29,10.13,1.69,19.43-7.41,19.43-17.33,0-.24-.03-.47-.04-.71.06-1.52-.03-3.03-.32-4.5-2.07-10.4-10.53-18.35-19.46-24.08-26.21-16.83-60.57-20.24-89.58-8.89-7.56,2.96-14.57,6.86-21.16,11.4l-3.08-12.14c-.97-3.83,1.7-7.71,5.96-8.67l.7-.16c4.26-.96,8.51,1.37,9.48,5.19l.7,2.75c4.57-1.94,9.38-3.97,14.37-4.55-1.23-4.75-2.08-6.71-2.08-6.71-3.22-8.75-10.36-16-20.86-16.61-18.22-1.04-26.44,16.84-21.98,31.09.03.1,25.69,82.09,25.69,82.09l20.59,67.54c-5.17.65-10.17,1.15-14.6,1.63-25.7,2.76-51.87,2.14-77.57,4.99,4.9-13.94,9.54-27.97,13.94-42.07,7.66-24.57,16.26-50.07,32.42-70.56.94-1.19,1.95-2.34,2.97-3.48l2.29-2.35-5.27-14.34-1.14,1.02-3.23,3.33.03.05c-13.56,14.4-24.56,31.67-33.12,49.54-12.82,26.74-21.83,55.02-32.38,82.68-3.31.74-6.62,1.54-9.9,2.48-31.96,9.19-68.69,26.45-84.12,57.88-8.39,17.1-9.61,44.51,8.87,55.67,3.3,1.99,7.18,3.39,11.67,4.01,10.88,1.5,23.04-.93,32.36-6.78,26.06-16.34,38.48-48.19,49.17-75.47,4.14-10.58,8.1-21.24,11.95-31.93,18.64-3.39,37.59-5.79,56.42-7.21,13.72-1.03,27.55-1.19,41.26-2.49l38.37,125.85-18.26-128.84c10.67-2.29,21.52-5.43,30.97-11,8.83-5.21,20.86-15.76,18.31-27.33-1.92-8.71-12.98-8.65-18.4-3.47-8.06,7.7-7.33,21.2-16.87,27.59-4.26,2.86-9.5,4.92-15.09,6.52l-16.41-115.78c-.39-3.91-.8-7.45-1.21-10.73-.72-.23-1.56-.39-2.06-.44-.39-.04-.77-.03-1.14-.04-.7.15-1.41.26-2.09.44-1.61.43-3.19.98-4.63,1.83-.95.56-1.79,1.26-2.61,1.98l.23.92c.97,3.83-1.7,7.71-5.96,8.67l-.7.16c-4.26.96-8.51-1.37-9.48-5.19l-.63-2.48c10.75-7.22,23.06-11.77,35.94-11.73,20.33.07,39.31,11.45,53.03,26.46ZM866.26,543.58c-5.51,5.7-12.47,11.15-20.38,10.75-9.03-.46-16.15-8.85-17.8-17.73-1.69-9.08,1.24-18.59,6.48-26.19,5.24-7.6,12.63-13.48,20.43-18.42,16.14-10.24,34.24-16.85,52.83-21.54-10.37,26.16-21.72,52.65-41.55,73.14Z"/>
  </g>
  <g>
    <path class="st4" d="M725.22,454.73c-4.95-43.69,1.33-86.05,16.53-124.23-24.01,42.37-35.34,92.44-29.43,144.53,14.87,131.13,133.22,225.37,264.34,210.51,5.09-.58,10.12-1.33,15.09-2.21-133.88,5.5-251.2-93.37-266.53-228.6Z"/>
    <path class="st5" d="M1215.5,419.24c7.04,62.1-8.41,121.56-39.86,170.27,40.66-49.75,62-115.22,54.19-184.11-15.37-135.53-137.7-232.95-273.23-217.58-1.9.22-3.79.46-5.67.72,133.25-3.3,249.27,95.75,264.57,230.71Z"/>
  </g>
</svg>